<svg xmlns="http://www.w3.org/2000/svg" width="500" height="500" viewbox='0 0 500 500'>
  <g transform="translate(30,-18)">

    <g transform="translate(124, 97) scale(.15) rotate(350, 250, 1586.6)">
      <path d="M 160 379 A 156 156, 0, 1, 1, 352 379" fill="none" stroke-width='66' stroke='#333' stroke-linecap="round"/>
      <circle cx="256" cy="256" r="86" fill='#444' />
      <line  x1='256' y1='570' x2='256' y2='256' stroke='#444' stroke-width='55'/>
    </g>

    <g transform="translate(160, -125) scale(.15) rotate(100, 250, 1586.6)">
      <path d="M 160 379 A 156 156, 0, 1, 1, 352 379" fill="none" stroke-width='66' stroke='#333' stroke-linecap="round"/>
      <circle cx="256" cy="256" r="86" fill='#444' />
      <line  x1='256' y1='770' x2='256' y2='256' stroke='#444' stroke-width='55'/>
    </g>

    <g transform="translate(221, 18) scale(.1) rotate(20, 250, 2100)">
      <path d="M 160 379 A 156 156, 0, 1, 1, 352 379" fill="none" stroke-width='66' stroke='#333' stroke-linecap="round"/>
      <circle cx="256" cy="256" r="86" fill='#444' />
      <line  x1='256' y1='670' x2='256' y2='256' stroke='#444' stroke-width='55'/>
    </g>

    <g transform="translate(98, 35) scale(.25) rotate(30, 250, 1200)">
      <path d="M 160 379 A 156 156, 0, 1, 1, 352 379" fill="none" stroke-width='66' stroke='#333' stroke-linecap="round"/>
      <circle cx="256" cy="256" r="86" fill='#444' />
      <line  x1='256' y1='590' x2='256' y2='256' stroke='#444' stroke-width='55'/>
    </g>

    <g transform="translate(207, 50) scale(.1) rotate(95, 250, 2100)">
      <path d="M 160 379 A 156 156, 0, 1, 1, 352 379" fill="none" stroke-width='66' stroke='#333' stroke-linecap="round"/>
      <circle cx="256" cy="256" r="86" fill='#444' />
      <line  x1='256' y1='570' x2='256' y2='256' stroke='#444' stroke-width='55'/>
    </g>

    <g transform="translate(126, 87) scale(.18) rotate(75, 250, 1300)">
      <path d="M 160 379 A 156 156, 0, 1, 1, 352 379" fill="none" stroke-width='66' stroke='#333' stroke-linecap="round"/>
      <circle cx="256" cy="256" r="86" fill='#444' />
      <line  x1='256' y1='570' x2='256' y2='256' stroke='#444' stroke-width='55'/>
    </g>

    <g transform="translate(137, 125) scale(.1) rotate(108, 250, 2100)">
      <path d="M 160 379 A 156 156, 0, 1, 1, 352 379" fill="none" stroke-width='66' stroke='#333' stroke-linecap="round"/>
      <circle cx="256" cy="256" r="86" fill='#444' />
      <line  x1='256' y1='570' x2='256' y2='256' stroke='#444' stroke-width='55'/>
    </g>
    <g transform="translate(0, 175) scale(.65) rotate(350 250, 250)">
      <path d="M 107,180 L 393,180" stroke-width='20' stroke='cornflowerblue' stroke-linecap="round"/>
      <path d="M 97,177
        C 140,45 360,45 403,177
        Z
        " fill="cornflowerblue" />
      <path d="M 97,208
        C 75,210 75,280 97,292
        L 402,292
        C 425,290 425,210 402,208
        Z
        " fill="firebrick"/>
      <path d="M 107,320 L 393,320" stroke-width='20' stroke='darkgoldenrod' stroke-linecap="round" />
      <path d="M 97,177
        C 140,45 360,45 403,177
        Z
        " fill="darkgoldenrod" transform="rotate(180 250, 250)"/>
      <circle fill='none' stroke-width='40' stroke='#333' cx="250" cy="250" r="220"/>
    </g>
  </g>
</svg>
