<?xml version="1.0" encoding="iso-8859-1"?>
<!-- Generator: Adobe Illustrator 19.0.0, SVG Export Plug-In . SVG Version: 6.00 Build 0)  -->
<svg xmlns="http://www.w3.org/2000/svg" xmlns:xlink="http://www.w3.org/1999/xlink" version="1.1" id="Layer_1" x="0px" y="0px" viewBox="0 0 356.549 356.549" style="enable-background:new 0 0 356.549 356.549;" xml:space="preserve" width="512" height="512">
<g id="_x31_3._Pin_1_">
	<g id="XMLID_63_">
		<g>
			<g>
				<path style="fill:#8ECAC1;" d="M341.77,120.546c6.39,6.39,6.39,16.74,0,23.13l-12.67,12.67c-6.39,6.39-16.75,6.39-23.13,0      l-8.28-8.27l-72.24,72.23c6.88,31.65,0.5,65.59-19.16,92.95c-5.89,8.21-17.73,9.19-24.87,2.04l-49.62-49.61l-40.95-40.95      l-49.59-49.59c-7.15-7.15-6.16-18.99,2.04-24.88c27.36-19.66,61.31-26.04,92.95-19.16l72.24-72.24l-8.28-8.27      c-6.39-6.39-6.39-16.75,0-23.14l12.67-12.67c6.39-6.38,16.75-6.38,23.13,0L341.77,120.546z"/>
			</g>
			<g>
				<polygon style="fill:#F2D59F;" points="90.85,224.736 131.8,265.686 10,346.536     "/>
			</g>
		</g>
		<g>
			<g>
				<path style="fill:#5E2A41;" d="M192.972,330.091c-6.967,0-13.658-2.753-18.627-7.728l-49.615-49.605h-0.001l-90.539-90.54      c-5.48-5.48-8.263-13.053-7.634-20.776c0.63-7.735,4.606-14.769,10.91-19.297c27.531-19.783,62.042-27.627,95.473-21.868      l61.405-61.405l-1.2-1.199c-10.283-10.283-10.283-27.007-0.005-37.286l12.67-12.671c10.286-10.27,27.004-10.266,37.273,0      l105.761,105.761c10.275,10.275,10.275,26.995,0,37.271l-12.67,12.671c-4.98,4.98-11.6,7.721-18.641,7.721      c-7.043,0-13.662-2.744-18.637-7.727l-1.2-1.198l-61.414,61.405c5.756,33.437-2.087,67.943-21.869,95.473      c-4.521,6.304-11.554,10.283-19.289,10.913C194.403,330.063,193.686,330.091,192.972,330.091z M138.87,258.614l49.62,49.61      c1.813,1.814,3.923,1.931,5.009,1.845c1.099-0.089,3.165-0.552,4.666-2.643c17.561-24.439,23.943-55.418,17.514-84.997      c-0.723-3.325,0.295-6.79,2.701-9.195l72.24-72.23c3.904-3.903,10.233-3.904,14.137-0.004l8.281,8.27      c1.205,1.208,2.798,1.867,4.493,1.867c1.699,0,3.297-0.662,4.499-1.863l12.669-12.67c2.478-2.478,2.478-6.51,0-8.987      L228.94,21.857c-2.475-2.476-6.512-2.475-8.994,0.006l-12.664,12.664c-2.48,2.481-2.48,6.518,0,8.998l8.275,8.266      c1.878,1.874,2.933,4.419,2.934,7.072c0.001,2.653-1.053,5.198-2.929,7.074l-72.24,72.24c-2.407,2.406-5.871,3.42-9.196,2.7      c-29.577-6.433-60.555-0.049-84.99,17.51c-2.093,1.503-2.556,3.575-2.646,4.676c-0.089,1.095,0.032,3.202,1.842,5.012      L138.87,258.614L138.87,258.614z"/>
			</g>
			<g>
				<path style="fill:#5E2A41;" d="M10.003,356.535c-2.581,0-5.142-0.996-7.074-2.929c-3.365-3.365-3.892-8.637-1.26-12.602      l80.851-121.8c3.055-4.604,9.262-5.854,13.861-2.801c4.602,3.054,5.855,9.26,2.801,13.861L45.7,310.835l80.569-53.48      c4.601-3.057,10.807-1.802,13.861,2.801c3.055,4.602,1.801,10.808-2.801,13.862l-121.8,80.849      C13.843,355.987,11.917,356.535,10.003,356.535z"/>
			</g>
			<g>
				<path style="fill:#5E2A41;" d="M297.691,158.066c-2.559,0-5.118-0.976-7.07-2.928l-49.9-49.89      c-3.905-3.905-3.906-10.237-0.002-14.143c3.905-3.905,10.237-3.907,14.143-0.002l49.9,49.89      c3.905,3.905,3.906,10.237,0.002,14.143C302.81,157.089,300.25,158.066,297.691,158.066z"/>
			</g>
			<g>
				<path style="fill:#5E2A41;" d="M89.705,179.618c-4.356,0-8.361-2.868-9.613-7.265c-1.512-5.312,1.567-10.844,6.88-12.357      c14.047-4.001,29.021-4.471,43.296-1.363c5.396,1.175,8.819,6.502,7.645,11.898c-1.176,5.396-6.504,8.813-11.898,7.645      c-11.069-2.411-22.677-2.045-33.565,1.057C91.533,179.493,90.612,179.618,89.705,179.618z"/>
			</g>
		</g>
	</g>
</g>















</svg>
